{"title":"Dodookdeul aka The Thieves 2012 Sth. Korean 1080p.BluRay.5.1 x26","uid":10127760,"size":2823165082,"categoryP":"video","categoryS":"hd___movies","magnet":"?xt=urn:btih:05910dff9a5c938f067211d20a86ce2b69d971d9&amp;dn=Dodookdeul+aka+The+Thieves+2012+Sth.+Korean+1080p.BluRay.5.1+x26&amp;tr=udp%3A%2F%2Ftracker.openbittorrent.com%3A80&amp;tr=udp%3A%2F%2Fopen.demonii.com%3A1337&amp;tr=udp%3A%2F%2Ftracker.coppersurfer.tk%3A6969&amp;tr=udp%3A%2F%2Fexodus.desync.com%3A6969","seeders":8,"leechers":3,"uploader":".NVEE","files":-1,"time":1399799142,"description":"A  stark47845 ,... Request.\n\n\nQuick note :\nIf you require a torrent release I have posted in the past, not seeding,...\nPlease do not hesitate to inform me in any means you find fit to do so.\nTorrent requests also &quot;Always Welcome.&quot;\n\n\nFULL_INFOs\n\n99.99% --- SYNCED GUARANTEED \n\n&quot;Totally scrutinized / analyzed to be a verified torrent.&quot;\n___________________________________________\n\nSource : Blu-ray ~ 1080p\n\n\n\nSpoken Language : South Korean\n\nAudio : 6 ~ Channels Only\n\n\nSubs Info :\n\nEnglish\n\nAll .srt &amp; .idx subs can be turned On/Off\n_____________________________________\n---------------------------------------------------------------------------------\n\nGeneral Metadata\n\nComplete name : Dodookdeul aka The Thieves.2012.Sth.Korean.816p.BluRay.5.1.x264 . NVEE.mp4\nFormat : MPEG-4\nFormat profile : Base Media\nCodec ID : isom\nFile size : 2.63 GiB\nDuration : 2h 15mn\nOverall bit rate : 2 770 Kbps\nEncoded date : UTC 2014-05-05 01:07:24\nTagged date : UTC 2014-05-05 01:07:24\n\n\nVideo\n\nID : 1\nFormat : AVC\nFormat/Info : Advanced Video Codec\nFormat profile : &lt;a class=&quot;__cf_email__&quot; href=&quot;/cdn-cgi/l/email-protection&quot; data-cfemail=&quot;cb83a2aca38b87ffe5fa&quot;&gt;[email&amp;#160;protected]&lt;/a&gt;&lt;script cf-hash='f9e31' type=&quot;text/javascript&quot;&gt;\n/* &lt;![CDATA[ */!function(){try{var t=&quot;currentScript&quot;in document?document.currentScript:function(){for(var t=document.getElementsByTagName(&quot;script&quot;),e=t.length;e--;)if(t[e].getAttribute(&quot;cf-hash&quot;))return t[e]}();if(t&amp;&amp;t.previousSibling){var e,r,n,i,c=t.previousSibling,a=c.getAttribute(&quot;data-cfemail&quot;);if(a){for(e=&quot;&quot;,r=parseInt(a.substr(0,2),16),n=2;a.length-n;n+=2)i=parseInt(a.substr(n,2),16)^r,e+=String.fromCharCode(i);e=document.createTextNode(e),c.parentNode.replaceChild(e,c)}}}catch(u){}}();/* ]]&gt; */&lt;/script&gt;\nFormat settings, CABAC : Yes\nFormat settings, ReFrames : 3 frames\nCodec ID : avc1\nCodec ID/Info : Advanced Video Coding\nDuration : 2h 15mn\nBit rate : 2 384 Kbps\nMaximum bit rate : 25.4 Mbps\nWidth : 1 920 pixels\nHeight : 816 pixels\nDisplay aspect ratio : 2.35:1\nFrame rate mode : Constant\nFrame rate : 24.000 fps\nColor space : YUV\nChroma subsampling : 4:2:0\nBit depth : 8 bits\nScan type : Progressive\nBits/(Pixel*Frame) : 0.063\nStream size : 2.26 GiB (86%)\nWriting library : x264 core 142 r2409 d6b4e63\nEncoded from Physical Blu-ray / Region B\n\n\nAudio\n\nID : 2\nFormat : AC-3\nFormat/Info : Audio Coding 3\nMode extension : CM (complete main)\nFormat settings, Endianness : Big\nCodec ID : ac-3\nDuration : 2h 15mn\nBit rate mode : Constant\nBit rate : 384 Kbps\nChannel(s) : 6 channels\nChannel positions : Front: L C R, Side: L R, LFE\nSampling rate : 48.0 KHz\nBit depth : 16 bits\nCompression mode : Lossy\nStream size : 373 MiB (14%)\nLanguage : Korean\nEncoded date : UTC 2014-05-05 01:18:17\nTagged date : UTC 2014-05-05 01:19:13\nEncoded from Physical Blu-ray 6 Channel audio &quot;Always&quot;.\n\n\nEnj0y !\n","torrent":{"xt":"urn:btih:05910dff9a5c938f067211d20a86ce2b69d971d9","amp;dn":"Dodookdeul+aka+The+Thieves+2012+Sth.+Korean+1080p.BluRay.5.1+x26","amp;tr":["udp%3A%2F%2Ftracker.openbittorrent.com%3A80","udp%3A%2F%2Fopen.demonii.com%3A1337","udp%3A%2F%2Ftracker.coppersurfer.tk%3A6969","udp%3A%2F%2Fexodus.desync.com%3A6969"],"infoHash":"05910dff9a5c938f067211d20a86ce2b69d971d9","infoHashBuffer":{"type":"Buffer","data":[5,145,13,255,154,92,147,143,6,114,17,210,10,134,206,43,105,217,113,217]},"announce":[],"urlList":[]}}